<svg width="148" height="143" viewBox="0 0 148 143" fill="none" xmlns="http://www.w3.org/2000/svg">
<path d="M10.5127 107.495C9.19861 107.495 7.97292 107.249 6.83569 106.758C5.69846 106.266 4.70022 105.594 3.84098 104.74C2.98173 103.86 2.29939 102.839 1.79396 101.675C1.31379 100.51 1.07371 99.2558 1.07371 97.9106C1.07371 96.5654 1.31379 95.3108 1.79396 94.1467C2.29939 92.9826 2.98173 91.9737 3.84098 91.12C4.70022 90.2405 5.69846 89.555 6.83569 89.0635C7.97292 88.5719 9.19861 88.3262 10.5127 88.3262C11.5236 88.3262 12.585 88.4685 13.697 88.753C14.8342 89.0117 15.8072 89.4774 16.6159 90.1499V92.8662C16.2368 92.3229 15.8072 91.8056 15.327 91.314C14.8469 90.7967 14.3162 90.344 13.7349 89.9559C13.1789 89.5679 12.585 89.2575 11.9532 89.0247C11.3214 88.7918 10.6644 88.6754 9.98203 88.6754C8.8448 88.6754 7.8592 88.9341 7.02523 89.4515C6.19126 89.943 5.48365 90.5897 4.90239 91.3917C4.34641 92.1936 3.92943 93.1119 3.65144 94.1467C3.37345 95.1556 3.23445 96.1774 3.23445 97.2121C3.23445 98.3245 3.38608 99.4757 3.68935 100.666C3.99261 101.83 4.46014 102.89 5.09193 103.848C5.72373 104.805 6.50716 105.594 7.44221 106.215C8.37727 106.835 9.46396 107.146 10.7023 107.146C11.3846 107.146 12.0291 107.029 12.6356 106.797C13.2674 106.564 13.8486 106.253 14.3793 105.865C14.91 105.477 15.3902 105.025 15.8198 104.507C16.2747 103.99 16.6791 103.447 17.0329 102.877L17.374 104.662C16.9444 105.05 16.4516 105.413 15.8956 105.749C15.3397 106.085 14.7584 106.383 14.1519 106.641C13.5454 106.9 12.9262 107.107 12.2944 107.262C11.6879 107.417 11.094 107.495 10.5127 107.495ZM22.5781 100.937C22.5781 98.816 23.1593 97.1087 24.3218 95.8152C25.4843 94.5218 27.127 93.8751 29.2498 93.8751C30.0585 93.8751 30.7661 94.0432 31.3727 94.3795C31.9792 94.7158 32.4846 95.1685 32.889 95.7376C33.2933 96.3067 33.5966 96.9535 33.7988 97.6778C34.0009 98.3762 34.102 99.1006 34.102 99.8508H24.1702C24.1702 100.653 24.2586 101.455 24.4356 102.257C24.6125 103.059 24.9031 103.77 25.3074 104.391C25.7118 105.012 26.2299 105.516 26.8616 105.904C27.4934 106.292 28.2769 106.486 29.2119 106.486C29.6163 106.486 30.0585 106.447 30.5387 106.37C31.0189 106.292 31.4864 106.176 31.9413 106.02C32.4215 105.839 32.8511 105.62 33.2302 105.361C33.6092 105.076 33.8999 104.74 34.102 104.352C33.6977 105.387 33.0027 106.189 32.0171 106.758C31.0568 107.327 30.0459 107.611 28.9845 107.611C28.0747 107.611 27.2281 107.443 26.4447 107.107C25.6612 106.745 24.9789 106.266 24.3976 105.671C23.8417 105.076 23.3994 104.378 23.0709 103.576C22.7423 102.748 22.5781 101.869 22.5781 100.937ZM28.9087 94.1079C28.2516 94.1079 27.6324 94.276 27.0512 94.6123C26.4952 94.9228 26.0024 95.3367 25.5728 95.854C25.1432 96.3455 24.802 96.9147 24.5493 97.5614C24.3218 98.1822 24.2081 98.816 24.2081 99.4627H31.0694C31.6507 99.4627 32.0803 99.2687 32.3583 98.8807C32.6363 98.4927 32.7753 98.04 32.7753 97.5226C32.7753 96.9793 32.6615 96.5008 32.4341 96.0869C32.2066 95.6471 31.916 95.2849 31.5622 95.0004C31.2084 94.6899 30.7914 94.47 30.3113 94.3407C29.8564 94.1855 29.3888 94.1079 28.9087 94.1079ZM45.1086 107.456C44.2494 107.456 43.466 107.275 42.7584 106.913C42.076 106.551 41.4948 106.072 41.0146 105.477C40.5344 104.856 40.1554 104.158 39.8774 103.382C39.6246 102.58 39.4983 101.765 39.4983 100.937C39.4983 99.9801 39.6373 99.0747 39.9153 98.221C40.2185 97.3415 40.6482 96.5784 41.2041 95.9316C41.7601 95.2849 42.4298 94.7675 43.2132 94.3795C43.9967 93.9915 44.8812 93.7975 45.8668 93.7975C46.7513 93.7975 47.4589 93.9268 47.9896 94.1855C48.5456 94.4442 49.1395 94.8581 49.7713 95.4272V91.0424C49.7713 90.8872 49.7587 90.7061 49.7334 90.4992C49.7081 90.2664 49.6576 90.0594 49.5818 89.8783C49.5312 89.6972 49.4428 89.542 49.3164 89.4127C49.19 89.2833 49.0131 89.2187 48.7857 89.2187L51.2497 87.2785V104.003C51.2497 104.365 51.3129 104.688 51.4392 104.973C51.5656 105.257 51.8309 105.426 52.2353 105.477L49.7713 107.379V97.833C49.7713 97.3156 49.6449 96.837 49.3922 96.3973C49.1648 95.9316 48.8489 95.5307 48.4445 95.1944C48.0654 94.8322 47.6232 94.5606 47.1177 94.3795C46.6376 94.1726 46.1574 94.0691 45.6773 94.0691C44.9191 94.0691 44.2494 94.276 43.6681 94.6899C43.1122 95.078 42.6446 95.5824 42.2656 96.2033C41.9117 96.8241 41.6338 97.5096 41.4316 98.2598C41.2547 98.9842 41.1662 99.6826 41.1662 100.355C41.1662 101.002 41.2547 101.713 41.4316 102.489C41.6085 103.24 41.8738 103.938 42.2276 104.585C42.5815 105.206 43.0363 105.736 43.5923 106.176C44.1736 106.59 44.8433 106.797 45.6014 106.797C46.3596 106.797 46.9914 106.667 47.4968 106.409C48.0023 106.124 48.5203 105.723 49.051 105.206C48.6214 105.878 48.0528 106.421 47.3452 106.835C46.6376 107.249 45.8921 107.456 45.1086 107.456ZM71.043 100.51C70.8156 101.028 70.5755 101.558 70.3228 102.101C70.0953 102.619 69.8426 103.123 69.5646 103.615C69.5646 103.641 69.552 103.666 69.5267 103.692C68.8696 104.805 68.0357 105.736 67.0248 106.486C66.0139 107.236 64.8261 107.611 63.4615 107.611C62.5517 107.611 61.7051 107.443 60.9216 107.107C60.1382 106.745 59.4559 106.266 58.8746 105.671C58.3186 105.076 57.8764 104.378 57.5479 103.576C57.2193 102.748 57.055 101.869 57.055 100.937C57.055 98.816 57.6363 97.1087 58.7988 95.8152C59.9613 94.5218 61.604 93.8751 63.7268 93.8751C64.5355 93.8751 65.2431 94.0432 65.8497 94.3795C66.4562 94.7158 66.9616 95.1685 67.366 95.7376C67.7703 96.3067 68.0736 96.9535 68.2757 97.6778C68.4779 98.3762 68.579 99.1006 68.579 99.8508H58.6472C58.5966 100.575 58.6345 101.338 58.7609 102.14C58.8873 102.916 59.1273 103.641 59.4812 104.313C59.8602 104.96 60.3657 105.516 60.9975 105.982C61.6545 106.421 62.4759 106.68 63.4615 106.758C63.8658 106.809 64.2702 106.822 64.6745 106.797C65.0789 106.745 65.4958 106.654 65.9255 106.525C66.5825 106.266 67.1512 105.917 67.6313 105.477C68.1368 105.037 68.579 104.546 68.9581 104.003C69.3372 103.459 69.6783 102.877 69.9816 102.257C70.2849 101.636 70.5629 101.015 70.8156 100.394C70.9167 100.187 71.0051 99.9801 71.0809 99.7732C71.182 99.5403 71.2957 99.3205 71.4221 99.1135V97.2121C71.4221 97.0828 71.4095 96.9276 71.3842 96.7465C71.3589 96.5396 71.3084 96.3455 71.2326 96.1645C71.182 95.9834 71.0936 95.8411 70.9672 95.7376C70.8661 95.6083 70.7145 95.5436 70.5123 95.5436L72.9005 93.8751V96.5137C73.1279 96.2033 73.368 95.9187 73.6208 95.66C73.8987 95.4013 74.1894 95.1556 74.4926 94.9228C74.8464 94.6123 75.2129 94.3536 75.592 94.1467C75.9963 93.9139 76.4512 93.7975 76.9566 93.7975C77.2346 93.7975 77.4873 93.8751 77.7148 94.0303C77.9422 94.1855 78.056 94.4054 78.056 94.6899C78.056 95.0004 77.9549 95.2332 77.7527 95.3884C77.5758 95.5436 77.3483 95.6212 77.0704 95.6212C76.8429 95.6212 76.6028 95.5436 76.3501 95.3884C76.0974 95.2332 75.7815 95.1556 75.4024 95.1556C75.2002 95.1556 74.9981 95.1944 74.7959 95.272C74.619 95.3237 74.4295 95.4013 74.2273 95.5048C73.4944 96.0998 72.8879 96.85 72.4077 97.7554C71.9528 98.6349 71.4979 99.5533 71.043 100.51ZM63.3857 94.1079C62.7286 94.1079 62.1094 94.276 61.5282 94.6123C60.9722 94.9228 60.4794 95.3367 60.0498 95.854C59.6201 96.3455 59.279 96.9147 59.0263 97.5614C58.7988 98.1822 58.6851 98.816 58.6851 99.4627H65.5464C66.1276 99.4627 66.5573 99.2687 66.8353 98.8807C67.1133 98.4927 67.2523 98.04 67.2523 97.5226C67.2523 96.9793 67.1385 96.5008 66.9111 96.0869C66.6836 95.6471 66.393 95.2849 66.0392 95.0004C65.6854 94.6899 65.2684 94.47 64.7882 94.3407C64.3333 94.1855 63.8658 94.1079 63.3857 94.1079ZM70.1332 107.417C70.6387 107.262 70.9798 106.991 71.1567 106.603C71.3336 106.189 71.4221 105.723 71.4221 105.206V101.015C71.4726 100.911 71.5737 100.704 71.7254 100.394C71.877 100.058 72.0413 99.7085 72.2182 99.3463C72.3951 98.9842 72.5467 98.6608 72.6731 98.3762C72.7994 98.0658 72.8752 97.8718 72.9005 97.7942V105.206C72.9005 105.723 72.989 106.189 73.1659 106.603C73.3428 106.991 73.6713 107.262 74.1515 107.417H70.1332ZM80.8561 100.821C80.8561 99.7602 81.0077 98.8031 81.311 97.9494C81.6395 97.0699 82.0944 96.3197 82.6757 95.6988C83.2822 95.078 84.0024 94.5994 84.8364 94.2631C85.6704 93.9009 86.6054 93.7198 87.6416 93.7198C88.425 93.7198 89.12 93.9268 89.7265 94.3407C90.3583 94.7287 90.9522 95.1814 91.5082 95.6988L92.7212 93.7975V111.996C92.7212 112.514 92.797 112.966 92.9487 113.354C93.1256 113.742 93.4667 114.027 93.9722 114.208H89.9539C90.5099 114.053 90.8511 113.768 90.9775 113.354C91.1291 112.966 91.2049 112.514 91.2049 111.996V98.2986C91.2049 97.7554 91.1038 97.238 90.9016 96.7465C90.6995 96.2291 90.4088 95.7764 90.0298 95.3884C89.6759 95.0004 89.259 94.7029 88.7788 94.4959C88.2986 94.2631 87.7932 94.1467 87.2625 94.1467C86.4791 94.1467 85.7967 94.3407 85.2155 94.7287C84.6342 95.1168 84.1414 95.6212 83.7371 96.2421C83.3327 96.837 83.0295 97.4967 82.8273 98.221C82.6251 98.9454 82.524 99.6568 82.524 100.355C82.524 101.028 82.5998 101.752 82.7515 102.528C82.9031 103.278 83.1432 103.99 83.4717 104.662C83.8003 105.309 84.2425 105.852 84.7985 106.292C85.3545 106.732 86.0242 106.952 86.8076 106.952C87.5658 106.952 88.2102 106.797 88.7409 106.486C89.2969 106.176 89.8402 105.762 90.3709 105.244C89.9413 105.969 89.3474 106.538 88.5893 106.952C87.8564 107.366 87.0856 107.573 86.2769 107.573C85.3166 107.573 84.4952 107.392 83.8129 107.029C83.1305 106.641 82.5619 106.137 82.107 105.516C81.6774 104.869 81.3615 104.145 81.1593 103.343C80.9572 102.515 80.8561 101.675 80.8561 100.821ZM100.761 93.8363V103.11C100.761 103.576 100.811 104.042 100.912 104.507C101.013 104.947 101.178 105.348 101.405 105.71C101.632 106.046 101.923 106.318 102.277 106.525C102.656 106.732 103.111 106.835 103.642 106.835C104.299 106.835 104.943 106.693 105.575 106.409C106.207 106.098 106.775 105.736 107.281 105.322C106.775 105.969 106.144 106.499 105.385 106.913C104.652 107.301 103.882 107.495 103.073 107.495C102.391 107.495 101.809 107.366 101.329 107.107C100.849 106.848 100.457 106.499 100.154 106.059C99.8508 105.62 99.6234 105.115 99.4717 104.546C99.3454 103.977 99.2822 103.382 99.2822 102.761V97.1733C99.2822 96.8371 99.219 96.5266 99.0927 96.2421C98.9663 95.9575 98.7136 95.8023 98.3345 95.7764L100.761 93.8363ZM109.745 93.8363V103.809C109.745 103.964 109.757 104.145 109.783 104.352C109.808 104.559 109.846 104.753 109.896 104.934C109.972 105.115 110.073 105.27 110.2 105.4C110.326 105.529 110.49 105.594 110.692 105.594L108.266 107.417V97.1733C108.266 96.8371 108.203 96.5266 108.077 96.2421C107.95 95.9575 107.698 95.8023 107.319 95.7764L109.745 93.8363ZM117.937 91.6633C117.609 91.6633 117.343 91.5727 117.141 91.3917C116.939 91.1847 116.838 90.9131 116.838 90.5768C116.838 90.2405 116.939 89.9818 117.141 89.8007C117.343 89.5938 117.609 89.4903 117.937 89.4903C118.645 89.4903 118.998 89.8525 118.998 90.5768C118.998 91.3011 118.645 91.6633 117.937 91.6633ZM116.004 107.417C116.509 107.262 116.838 106.991 116.989 106.603C117.166 106.189 117.255 105.723 117.255 105.206V97.2121C117.255 97.0828 117.242 96.9276 117.217 96.7465C117.192 96.5396 117.154 96.3455 117.103 96.1645C117.053 95.9834 116.964 95.8411 116.838 95.7376C116.737 95.6083 116.585 95.5436 116.383 95.5436L118.771 93.8363V105.206C118.771 105.723 118.859 106.189 119.036 106.603C119.213 106.991 119.554 107.262 120.06 107.417H116.004ZM125.379 103.498C125.758 104.533 126.352 105.4 127.161 106.098C127.995 106.797 128.98 107.146 130.118 107.146C130.497 107.146 130.914 107.12 131.369 107.068C131.823 107.016 132.253 106.9 132.657 106.719C133.062 106.538 133.39 106.292 133.643 105.982C133.921 105.671 134.06 105.257 134.06 104.74C134.06 104.171 133.845 103.705 133.416 103.343C133.011 102.955 132.493 102.619 131.861 102.334C131.23 102.05 130.547 101.791 129.814 101.558C129.081 101.299 128.399 101.002 127.767 100.666C127.136 100.303 126.605 99.8766 126.175 99.3851C125.771 98.8678 125.569 98.234 125.569 97.4838C125.569 96.8629 125.682 96.3197 125.91 95.854C126.163 95.3625 126.491 94.9616 126.895 94.6511C127.3 94.3148 127.767 94.0691 128.298 93.9139C128.829 93.7587 129.372 93.681 129.928 93.681C130.181 93.681 130.509 93.7069 130.914 93.7587C131.343 93.8104 131.773 93.888 132.203 93.9915C132.632 94.0691 133.049 94.1726 133.454 94.3019C133.858 94.4054 134.174 94.5089 134.401 94.6123V97.1733C134.25 96.6818 134.01 96.2421 133.681 95.854C133.378 95.4401 133.011 95.0909 132.582 94.8063C132.177 94.5218 131.735 94.3019 131.255 94.1467C130.775 93.9915 130.295 93.9139 129.814 93.9139C129.486 93.9139 129.119 93.9656 128.715 94.0691C128.336 94.1726 127.982 94.3278 127.654 94.5347C127.325 94.7158 127.047 94.9616 126.82 95.272C126.617 95.5565 126.516 95.9058 126.516 96.3197C126.516 96.9923 126.719 97.5355 127.123 97.9494C127.553 98.3633 128.083 98.7255 128.715 99.0359C129.347 99.3463 130.029 99.6309 130.762 99.8896C131.52 100.148 132.215 100.446 132.847 100.782C133.479 101.092 133.997 101.481 134.401 101.946C134.831 102.412 135.046 103.02 135.046 103.77C135.046 104.468 134.907 105.063 134.629 105.555C134.376 106.02 134.022 106.409 133.567 106.719C133.138 107.029 132.632 107.249 132.051 107.379C131.495 107.508 130.926 107.573 130.345 107.573C129.562 107.573 128.715 107.495 127.805 107.34C126.921 107.159 126.112 106.952 125.379 106.719V103.498ZM140.456 93.8363H141.518V90.8872C141.518 90.344 141.631 89.8525 141.859 89.4127C142.112 88.947 142.503 88.6107 143.034 88.4038V93.8363H145.422V94.1855H143.034V103.925C143.034 104.675 143.249 105.335 143.679 105.904C144.133 106.473 144.753 106.758 145.536 106.758C145.966 106.758 146.408 106.654 146.863 106.447C147.343 106.215 147.722 105.917 148 105.555C147.722 106.176 147.267 106.641 146.635 106.952C146.004 107.262 145.384 107.417 144.778 107.417C144.197 107.417 143.691 107.314 143.262 107.107C142.857 106.874 142.516 106.577 142.238 106.215C141.985 105.826 141.796 105.4 141.669 104.934C141.568 104.442 141.518 103.925 141.518 103.382V94.1855H140.456V93.8363ZM9.91464 135.084C8.6735 135.084 7.51592 134.852 6.44187 134.388C5.36782 133.924 4.42505 133.288 3.61353 132.482C2.80202 131.651 2.15759 130.686 1.68023 129.587C1.22674 128.488 1 127.303 1 126.032C1 124.762 1.22674 123.577 1.68023 122.477C2.15759 121.378 2.80202 120.425 3.61353 119.619C4.42505 118.788 5.36782 118.141 6.44187 117.677C7.51592 117.212 8.6735 116.98 9.91464 116.98C10.8694 116.98 11.8718 117.115 12.922 117.383C13.996 117.628 14.915 118.068 15.6787 118.703V121.268C15.3207 120.755 14.915 120.266 14.4615 119.802C14.008 119.314 13.5067 118.886 12.9578 118.519C12.4327 118.153 11.8718 117.86 11.2751 117.64C10.6784 117.42 10.0578 117.31 9.41342 117.31C8.33937 117.31 7.40852 117.555 6.62088 118.043C5.83324 118.507 5.16493 119.118 4.61598 119.875C4.09087 120.633 3.69705 121.5 3.43452 122.477C3.17199 123.43 3.0407 124.395 3.0407 125.373C3.0407 126.423 3.18391 127.51 3.47032 128.634C3.75674 129.734 4.19828 130.735 4.79499 131.639C5.3917 132.543 6.13157 133.288 7.0147 133.875C7.89782 134.461 8.92411 134.754 10.0937 134.754C10.7381 134.754 11.3467 134.644 11.9195 134.425C12.5163 134.205 13.0652 133.911 13.5664 133.545C14.0676 133.178 14.5212 132.751 14.9269 132.262C15.3565 131.774 15.7384 131.261 16.0725 130.723L16.3948 132.409C15.989 132.775 15.5236 133.117 14.9985 133.435C14.4734 133.753 13.9244 134.033 13.3516 134.278C12.7788 134.522 12.194 134.718 11.5973 134.864C11.0245 135.011 10.4636 135.084 9.91464 135.084ZM21.2739 128.598C21.2739 127.718 21.441 126.887 21.7751 126.106C22.1092 125.324 22.5627 124.64 23.1356 124.053C23.7084 123.467 24.3767 123.003 25.1405 122.661C25.9042 122.319 26.7157 122.148 27.575 122.148C28.4342 122.148 29.2458 122.319 30.0095 122.661C30.7733 123.003 31.4416 123.467 32.0144 124.053C32.5872 124.64 33.0407 125.324 33.3749 126.106C33.709 126.887 33.8761 127.718 33.8761 128.598C33.8761 129.477 33.709 130.308 33.3749 131.09C33.0646 131.871 32.623 132.555 32.0502 133.142C31.4774 133.728 30.8091 134.193 30.0453 134.534C29.2816 134.876 28.47 135.048 27.6108 135.048C26.7277 135.048 25.9042 134.876 25.1405 134.534C24.3767 134.193 23.7084 133.728 23.1356 133.142C22.5627 132.555 22.1092 131.871 21.7751 131.09C21.441 130.308 21.2739 129.477 21.2739 128.598ZM27.1454 122.514C26.4293 122.514 25.7968 122.685 25.2479 123.027C24.6989 123.369 24.2335 123.809 23.8516 124.346C23.4936 124.859 23.2191 125.458 23.0282 126.142C22.8372 126.802 22.7417 127.461 22.7417 128.121C22.7417 128.854 22.8492 129.612 23.064 130.393C23.3027 131.175 23.6487 131.896 24.1022 132.555C24.5557 133.191 25.1047 133.716 25.7491 134.131C26.3935 134.522 27.1215 134.718 27.933 134.718C28.649 134.718 29.2816 134.547 29.8305 134.205C30.3794 133.863 30.833 133.435 31.191 132.922C31.5729 132.384 31.8473 131.786 32.0144 131.126C32.2053 130.442 32.3008 129.77 32.3008 129.111C32.3008 128.353 32.1815 127.583 31.9428 126.802C31.728 126.02 31.3939 125.311 30.9404 124.676C30.5107 124.041 29.9737 123.528 29.3293 123.137C28.7087 122.722 27.9807 122.514 27.1454 122.514ZM40.9747 122.184V130.943C40.9747 131.383 41.0224 131.823 41.1178 132.262C41.2134 132.677 41.3684 133.056 41.5832 133.398C41.798 133.716 42.0726 133.973 42.4067 134.168C42.7647 134.363 43.1943 134.461 43.6955 134.461C44.3159 134.461 44.9246 134.327 45.5214 134.058C46.1182 133.765 46.6553 133.423 47.1325 133.032C46.6553 133.643 46.0584 134.143 45.3424 134.534C44.6504 134.901 43.9221 135.084 43.1585 135.084C42.5141 135.084 41.9652 134.962 41.5116 134.718C41.058 134.473 40.6883 134.143 40.4018 133.728C40.1154 133.313 39.9006 132.837 39.7574 132.299C39.638 131.761 39.5784 131.2 39.5784 130.613V125.336C39.5784 125.018 39.5187 124.725 39.3994 124.456C39.28 124.188 39.0414 124.041 38.6834 124.017L40.9747 122.184ZM49.4596 122.184V131.603C49.4596 131.749 49.4714 131.92 49.4954 132.116C49.5194 132.311 49.5552 132.494 49.6028 132.665C49.6744 132.837 49.77 132.983 49.8892 133.105C50.0084 133.227 50.1638 133.288 50.3547 133.288L48.0633 135.011V125.336C48.0633 125.018 48.0035 124.725 47.8843 124.456C47.7651 124.188 47.5263 124.041 47.1683 124.017L49.4596 122.184ZM61.6849 122.734C61.0644 122.734 60.4558 122.881 59.859 123.174C59.2621 123.442 58.7251 123.772 58.2479 124.163C58.7491 123.552 59.3459 123.064 60.038 122.697C60.754 122.306 61.4941 122.111 62.2577 122.111C62.9021 122.111 63.4509 122.233 63.9046 122.477C64.3582 122.722 64.728 123.052 65.0144 123.467C65.3008 123.882 65.5039 124.358 65.6231 124.896C65.7663 125.434 65.8379 125.996 65.8379 126.582V132.775C65.8379 133.288 65.9213 133.753 66.0885 134.168C66.2793 134.559 66.6255 134.84 67.1267 135.011H63.1169C63.6182 134.84 63.9522 134.547 64.1194 134.131C64.3102 133.716 64.4058 133.264 64.4058 132.775V126.252C64.4058 125.812 64.3582 125.385 64.2626 124.969C64.167 124.53 64.012 124.151 63.7972 123.833C63.5824 123.491 63.2959 123.222 62.9379 123.027C62.6039 122.832 62.1861 122.734 61.6849 122.734ZM54.7751 135.011C55.2763 134.816 55.6103 134.522 55.7776 134.131C55.9448 133.74 56.0282 133.288 56.0282 132.775V125.592C56.0282 125.446 56.0164 125.275 55.9924 125.079C55.9684 124.884 55.9208 124.701 55.8492 124.53C55.8016 124.358 55.7178 124.212 55.5986 124.09C55.4794 123.968 55.3239 123.907 55.1331 123.907L57.4244 122.184L57.4603 132.775C57.4603 133.288 57.5436 133.74 57.7109 134.131C57.9017 134.522 58.2479 134.816 58.7491 135.011H54.7751ZM71.8825 131.309C72.2405 132.287 72.8015 133.105 73.5651 133.765C74.3528 134.424 75.2836 134.754 76.3577 134.754C76.7157 134.754 77.1095 134.73 77.5391 134.681C77.9688 134.632 78.3744 134.522 78.7564 134.351C79.1384 134.18 79.4484 133.948 79.6873 133.655C79.9497 133.362 80.0811 132.971 80.0811 132.482C80.0811 131.945 79.8781 131.505 79.4725 131.163C79.0904 130.796 78.6014 130.479 78.0046 130.21C77.4077 129.941 76.7633 129.697 76.0713 129.477C75.3792 129.233 74.7348 128.952 74.138 128.634C73.5411 128.292 73.0399 127.889 72.6343 127.425C72.2523 126.936 72.0615 126.337 72.0615 125.629C72.0615 125.043 72.1689 124.53 72.3837 124.09C72.6225 123.626 72.9325 123.247 73.3145 122.954C73.6966 122.636 74.138 122.404 74.6392 122.258C75.1404 122.111 75.6535 122.038 76.1787 122.038C76.4175 122.038 76.7275 122.062 77.1095 122.111C77.5151 122.16 77.9212 122.233 78.3268 122.331C78.7324 122.404 79.1262 122.502 79.5082 122.624C79.8903 122.722 80.1885 122.819 80.4033 122.917V125.336C80.2601 124.872 80.0335 124.456 79.7231 124.09C79.4366 123.699 79.0904 123.369 78.6848 123.1C78.3028 122.832 77.8854 122.624 77.4317 122.477C76.9781 122.331 76.5249 122.258 76.0713 122.258C75.7608 122.258 75.415 122.306 75.033 122.404C74.675 122.502 74.341 122.649 74.0306 122.844C73.7202 123.015 73.4577 123.247 73.2429 123.54C73.0521 123.809 72.9565 124.139 72.9565 124.53C72.9565 125.165 73.1473 125.678 73.5294 126.069C73.935 126.46 74.4362 126.802 75.033 127.095C75.6299 127.388 76.2743 127.657 76.9663 127.901C77.6824 128.146 78.3386 128.426 78.9354 128.744C79.5323 129.037 80.0213 129.404 80.4033 129.844C80.8089 130.283 81.0119 130.858 81.0119 131.566C81.0119 132.226 80.8805 132.787 80.6181 133.252C80.3793 133.692 80.0453 134.058 79.6157 134.351C79.21 134.644 78.7324 134.852 78.1836 134.974C77.6583 135.096 77.1213 135.157 76.5725 135.157C75.8325 135.157 75.033 135.084 74.1738 134.938C73.3385 134.766 72.5745 134.571 71.8825 134.351V131.309ZM85.9429 128.891C85.9429 126.887 86.4921 125.275 87.5898 124.053C88.6878 122.832 90.2391 122.221 92.244 122.221C93.008 122.221 93.6761 122.38 94.2489 122.697C94.8217 123.015 95.2994 123.442 95.681 123.98C96.063 124.518 96.3494 125.128 96.5402 125.812C96.7314 126.472 96.8266 127.156 96.8266 127.865H87.4466C87.4466 128.622 87.5304 129.379 87.6972 130.137C87.8644 130.894 88.139 131.566 88.5206 132.152C88.9026 132.739 89.3921 133.215 89.9885 133.582C90.5853 133.948 91.3254 134.131 92.2082 134.131C92.5902 134.131 93.008 134.095 93.4613 134.021C93.9149 133.948 94.3563 133.838 94.7859 133.692C95.2395 133.52 95.6452 133.313 96.0032 133.069C96.3612 132.8 96.6358 132.482 96.8266 132.116C96.445 133.093 95.7884 133.85 94.8575 134.388C93.9507 134.925 92.9958 135.194 91.9934 135.194C91.1341 135.194 90.3347 135.035 89.5947 134.718C88.855 134.376 88.2106 133.923 87.6614 133.362C87.1366 132.8 86.7187 132.14 86.4083 131.383C86.0983 130.601 85.9429 129.77 85.9429 128.891ZM91.9218 122.441C91.3014 122.441 90.7167 122.599 90.1675 122.917C89.6427 123.21 89.1773 123.601 88.7712 124.09C88.3656 124.554 88.0434 125.091 87.8046 125.702C87.5898 126.289 87.4824 126.887 87.4824 127.498H93.9625C94.5117 127.498 94.9173 127.315 95.1797 126.948C95.4426 126.582 95.5736 126.154 95.5736 125.666C95.5736 125.153 95.4661 124.701 95.2513 124.31C95.0365 123.895 94.7623 123.552 94.4279 123.284C94.0939 122.99 93.7001 122.783 93.2464 122.661C92.8168 122.514 92.3754 122.441 91.9218 122.441ZM100.943 135.011C101.444 134.816 101.778 134.522 101.945 134.131C102.112 133.74 102.196 133.288 102.196 132.775V119.326C102.196 119.179 102.184 119.008 102.16 118.813C102.136 118.593 102.088 118.397 102.017 118.226C101.969 118.055 101.885 117.909 101.766 117.787C101.647 117.664 101.491 117.603 101.301 117.603L103.592 115.881L103.628 132.775C103.628 133.288 103.711 133.74 103.878 134.131C104.069 134.522 104.415 134.816 104.917 135.011H100.943ZM111.551 120.132C111.241 120.132 110.991 120.047 110.799 119.875C110.609 119.68 110.513 119.424 110.513 119.106C110.513 118.788 110.609 118.544 110.799 118.373C110.991 118.178 111.241 118.08 111.551 118.08C112.22 118.08 112.554 118.422 112.554 119.106C112.554 119.79 112.22 120.132 111.551 120.132ZM109.725 135.011C110.203 134.864 110.513 134.608 110.656 134.241C110.823 133.85 110.907 133.41 110.907 132.922V125.373C110.907 125.251 110.895 125.104 110.871 124.933C110.847 124.737 110.812 124.554 110.764 124.383C110.716 124.212 110.633 124.078 110.513 123.98C110.418 123.858 110.275 123.797 110.083 123.797L112.339 122.184V132.922C112.339 133.41 112.423 133.85 112.59 134.241C112.757 134.608 113.079 134.864 113.556 135.011H109.725ZM125.275 122.734C124.654 122.734 124.046 122.881 123.449 123.174C122.852 123.442 122.315 123.772 121.838 124.163C122.339 123.552 122.936 123.064 123.628 122.697C124.344 122.306 125.084 122.111 125.848 122.111C126.492 122.111 127.041 122.233 127.495 122.477C127.948 122.722 128.318 123.052 128.605 123.467C128.891 123.882 129.094 124.358 129.213 124.896C129.357 125.434 129.428 125.996 129.428 126.582V132.775C129.428 133.288 129.512 133.753 129.679 134.168C129.87 134.559 130.216 134.84 130.717 135.011H126.707C127.208 134.84 127.542 134.547 127.71 134.131C127.9 133.716 127.996 133.264 127.996 132.775V126.252C127.996 125.812 127.948 125.385 127.853 124.969C127.757 124.53 127.602 124.151 127.387 123.833C127.173 123.491 126.886 123.222 126.528 123.027C126.194 122.832 125.776 122.734 125.275 122.734ZM118.365 135.011C118.867 134.816 119.201 134.522 119.368 134.131C119.535 133.74 119.618 133.288 119.618 132.775V125.592C119.618 125.446 119.606 125.275 119.583 125.079C119.559 124.884 119.511 124.701 119.439 124.53C119.391 124.358 119.308 124.212 119.189 124.09C119.069 123.968 118.914 123.907 118.723 123.907L121.015 122.184L121.051 132.775C121.051 133.288 121.134 133.74 121.301 134.131C121.492 134.522 121.838 134.816 122.339 135.011H118.365ZM144.83 121.928C144.615 121.928 144.412 121.964 144.221 122.038C144.436 121.671 144.722 121.353 145.08 121.085C145.462 120.792 145.868 120.645 146.298 120.645C146.56 120.645 146.811 120.718 147.049 120.865C147.288 120.987 147.407 121.207 147.407 121.525C147.407 121.818 147.312 122.05 147.121 122.221C146.93 122.367 146.703 122.441 146.441 122.441C146.154 122.441 145.88 122.355 145.617 122.184C145.378 122.013 145.116 121.928 144.83 121.928ZM140.498 132.299C139.782 132.299 139.089 132.177 138.421 131.932C137.777 131.664 137.204 131.297 136.703 130.833C136.201 130.369 135.795 129.819 135.485 129.184C135.199 128.549 135.056 127.853 135.056 127.095C135.056 126.362 135.211 125.678 135.521 125.043C135.831 124.408 136.237 123.858 136.738 123.394C137.263 122.929 137.848 122.575 138.493 122.331C139.161 122.062 139.841 121.928 140.533 121.928C141.249 121.928 141.942 122.05 142.61 122.294C143.278 122.539 143.863 122.893 144.364 123.357C144.889 123.821 145.307 124.371 145.617 125.006C145.927 125.617 146.083 126.313 146.083 127.095C146.083 127.853 145.915 128.549 145.581 129.184C145.271 129.819 144.853 130.369 144.328 130.833C143.827 131.297 143.242 131.664 142.574 131.932C141.906 132.177 141.214 132.299 140.498 132.299ZM136.667 126.729C136.667 127.339 136.762 127.962 136.953 128.598C137.144 129.208 137.419 129.77 137.777 130.283C138.135 130.796 138.564 131.212 139.066 131.529C139.59 131.847 140.187 132.006 140.856 132.006C141.428 132.006 141.93 131.871 142.359 131.603C142.813 131.334 143.183 130.98 143.469 130.54C143.779 130.1 144.006 129.612 144.149 129.074C144.316 128.536 144.4 128.011 144.4 127.498C144.4 126.887 144.293 126.277 144.078 125.666C143.887 125.031 143.6 124.456 143.219 123.943C142.861 123.43 142.419 123.015 141.894 122.697C141.369 122.38 140.784 122.221 140.14 122.221C139.567 122.221 139.066 122.367 138.636 122.661C138.206 122.929 137.848 123.284 137.562 123.723C137.275 124.139 137.048 124.615 136.882 125.153C136.738 125.69 136.667 126.215 136.667 126.729ZM136.309 136.184C136.046 136.721 135.915 137.283 135.915 137.869C135.915 138.554 136.07 139.177 136.38 139.738C136.69 140.325 137.096 140.826 137.598 141.241C138.099 141.681 138.66 142.011 139.28 142.23C139.901 142.475 140.521 142.597 141.142 142.597C141.595 142.597 142.085 142.512 142.61 142.34C143.159 142.194 143.66 141.974 144.114 141.681C144.567 141.388 144.937 141.021 145.223 140.581C145.533 140.166 145.689 139.69 145.689 139.152C145.689 138.541 145.438 138.089 144.937 137.796C144.459 137.527 143.851 137.32 143.111 137.173C142.371 137.051 141.572 136.965 140.712 136.917C139.877 136.868 139.089 136.77 138.35 136.623C137.609 136.501 136.989 136.281 136.488 135.964C136.01 135.646 135.772 135.17 135.772 134.534C135.772 134.241 135.843 133.973 135.987 133.728C136.13 133.484 136.309 133.264 136.524 133.069C136.738 132.873 136.977 132.714 137.24 132.592C137.502 132.446 137.753 132.348 137.992 132.299C137.753 132.47 137.49 132.702 137.204 132.995C136.941 133.264 136.81 133.57 136.81 133.911C136.81 134.351 137.037 134.656 137.49 134.828C137.967 134.999 138.552 135.121 139.245 135.194C139.937 135.292 140.688 135.365 141.5 135.414C142.311 135.487 143.063 135.622 143.756 135.817C144.448 136.037 145.02 136.367 145.474 136.807C145.951 137.271 146.19 137.918 146.19 138.749C146.19 139.531 146.011 140.19 145.653 140.728C145.319 141.266 144.865 141.705 144.293 142.047C143.743 142.389 143.135 142.634 142.467 142.78C141.798 142.927 141.142 143 140.498 143C139.901 143 139.268 142.927 138.6 142.78C137.956 142.658 137.359 142.438 136.81 142.12C136.285 141.827 135.843 141.424 135.485 140.911C135.127 140.398 134.948 139.763 134.948 139.005C134.948 138.468 135.068 137.943 135.306 137.43C135.569 136.941 135.903 136.525 136.309 136.184Z" fill="#325439"/>
<path d="M79.4506 54.7534C79.3973 54.7774 79.3734 54.7961 79.0112 54.9589C70.7574 58.1937 64.8777 66.3066 63.4956 75.6157C63.433 76.0389 63.4956 76.4702 63.4956 76.8987C59.2309 76.9067 54.9662 76.9134 50.7002 76.9214C50.8293 73.9897 51.5497 67.3319 56.4109 61.4191C58.8741 58.422 61.5517 57.1243 62.0749 56.812C69.3234 52.4705 77.1006 54.1125 79.4506 54.752V54.7534Z" fill="#325439" stroke="#325439" stroke-width="0.0557043" stroke-miterlimit="10"/>
<path d="M50.5098 77.2231C50.5098 64.2641 60.9884 53.7574 73.913 53.7574C86.8375 53.7574 97.3162 64.2641 97.3162 77.2231" stroke="#59895F" stroke-width="0.594179" stroke-miterlimit="10" stroke-linecap="round"/>
<path d="M73.9121 45.8674V1" stroke="#59895F" stroke-width="0.594179" stroke-miterlimit="10" stroke-linecap="round"/>
<path d="M85.882 48.2464L103.022 6.80066" stroke="#59895F" stroke-width="0.594179" stroke-miterlimit="10" stroke-linecap="round"/>
<path d="M96.0252 55.051L127.666 23.3256" stroke="#59895F" stroke-width="0.594179" stroke-miterlimit="10" stroke-linecap="round"/>
<path d="M102.812 65.2199L144.147 48.0342" stroke="#59895F" stroke-width="0.594179" stroke-miterlimit="10" stroke-linecap="round"/>
<path d="M45.0142 65.2199L3.67871 48.0342" stroke="#59895F" stroke-width="0.594179" stroke-miterlimit="10" stroke-linecap="round"/>
<path d="M51.8006 55.051L20.1582 23.3256" stroke="#59895F" stroke-width="0.594179" stroke-miterlimit="10" stroke-linecap="round"/>
<path d="M61.9426 48.2464L44.8027 6.80066" stroke="#59895F" stroke-width="0.594179" stroke-miterlimit="10" stroke-linecap="round"/>
<path d="M79.8213 46.4255L83.8863 25.1012" stroke="#59895F" stroke-width="0.594179" stroke-miterlimit="10" stroke-linecap="round"/>
<path d="M94.4501 46.2319L106.383 28.1143" stroke="#59895F" stroke-width="0.594179" stroke-miterlimit="10" stroke-linecap="round"/>
<path d="M99.8056 59.6355L117.723 47.4427" stroke="#59895F" stroke-width="0.594179" stroke-miterlimit="10" stroke-linecap="round"/>
<path d="M111.872 69.3065L133.088 64.957" stroke="#59895F" stroke-width="0.594179" stroke-miterlimit="10" stroke-linecap="round"/>
<path d="M43.1982 71.2996L21.9307 67.2224" stroke="#59895F" stroke-width="0.594179" stroke-miterlimit="10" stroke-linecap="round"/>
<path d="M43.1387 57.2966L25.0693 45.3334" stroke="#59895F" stroke-width="0.594179" stroke-miterlimit="10" stroke-linecap="round"/>
<path d="M56.3731 51.2596L44.2128 33.2955" stroke="#59895F" stroke-width="0.594179" stroke-miterlimit="10" stroke-linecap="round"/>
<path d="M66.418 40.7623L62.0801 19.4914" stroke="#59895F" stroke-width="0.594179" stroke-miterlimit="10" stroke-linecap="round"/>
<path d="M1 77.2218H146.826" stroke="#59895F" stroke-width="0.594179" stroke-miterlimit="10" stroke-linecap="round"/>
<path d="M14.5147 67.1958C14.8323 67.1958 15.0898 66.9376 15.0898 66.6191C15.0898 66.3006 14.8323 66.0424 14.5147 66.0424C14.197 66.0424 13.9395 66.3006 13.9395 66.6191C13.9395 66.9376 14.197 67.1958 14.5147 67.1958Z" fill="#59895F"/>
<path d="M85.8965 16.9415C86.2142 16.9415 86.4717 16.6833 86.4717 16.3648C86.4717 16.0463 86.2142 15.7881 85.8965 15.7881C85.5788 15.7881 85.3213 16.0463 85.3213 16.3648C85.3213 16.6833 85.5788 16.9415 85.8965 16.9415Z" fill="#59895F"/>
<path d="M39.3084 28.1557C39.6261 28.1557 39.8836 27.8975 39.8836 27.579C39.8836 27.2605 39.6261 27.0023 39.3084 27.0023C38.9907 27.0023 38.7332 27.2605 38.7332 27.579C38.7332 27.8975 38.9907 28.1557 39.3084 28.1557Z" fill="#59895F"/>
<path d="M125.233 43.4671C125.55 43.4671 125.808 43.2088 125.808 42.8903C125.808 42.5718 125.55 42.3136 125.233 42.3136C124.915 42.3136 124.657 42.5718 124.657 42.8903C124.657 43.2088 124.915 43.4671 125.233 43.4671Z" fill="#59895F"/>
<path d="M104.595 71.5026C104.912 71.5026 105.17 71.2444 105.17 70.9259C105.17 70.6073 104.912 70.3491 104.595 70.3491C104.277 70.3491 104.02 70.6073 104.02 70.9259C104.02 71.2444 104.277 71.5026 104.595 71.5026Z" fill="#59895F"/>
<path d="M47.7891 60.5941C48.1067 60.5941 48.3643 60.3359 48.3643 60.0174C48.3643 59.6989 48.1067 59.4407 47.7891 59.4407C47.4714 59.4407 47.2139 59.6989 47.2139 60.0174C47.2139 60.3359 47.4714 60.5941 47.7891 60.5941Z" fill="#59895F"/>
<path d="M67.6279 46.4429C67.9456 46.4429 68.2031 46.1847 68.2031 45.8662C68.2031 45.5476 67.9456 45.2894 67.6279 45.2894C67.3103 45.2894 67.0527 45.5476 67.0527 45.8662C67.0527 46.1847 67.3103 46.4429 67.6279 46.4429Z" fill="#59895F"/>
<path d="M91.0625 51.6495C91.3802 51.6495 91.6377 51.3913 91.6377 51.0728C91.6377 50.7542 91.3802 50.496 91.0625 50.496C90.7449 50.496 90.4873 50.7542 90.4873 51.0728C90.4873 51.3913 90.7449 51.6495 91.0625 51.6495Z" fill="#59895F"/>
</svg>
